# xmcd
#
# Track frame offsets:
#	150
#	14393
#	24433
#	41561
#	53258
#	66771
#	83456
#	95569
#	118783
#	130847
#	146321
#	158249
#	176568
#	190639
#	210466
#	223997
#
# Disc length: 3193 seconds
#
# Revision: 0
# Processed by: cddbd v1.5.2PL0 Copyright (c) Steve Scherf et al.
# Submitted via: EZCDAudioConverter 2.4.0.1
#
DISCID=d00c7710
DTITLE=Juanita du Plessis - Nashville
DYEAR=2014
DGENRE=Country
TTITLE0=Today I started loving you again (Met Steve Hofmeyr)
TTITLE1=On the road again
TTITLE2=Loving arms
TTITLE3=Blue eyes crying in the rain
TTITLE4=Toy train
TTITLE5=Always on my mind
TTITLE6=Stand by your man
TTITLE7=Elvis Medley
TTITLE8=I walk the line
TTITLE9=You needed me
TTITLE10=Medals for mothers
TTITLE11=Seven spanish angels (Met Pieter Naude)
TTITLE12=Wasted days and wasted nights
TTITLE13=Coward of the county
TTITLE14=Down the Mississippi
TTITLE15=Delte Dawn - Will the circle be unbroken
EXTD=
EXTT0=
EXTT1=
EXTT2=
EXTT3=
EXTT4=
EXTT5=
EXTT6=
EXTT7=
EXTT8=
EXTT9=
EXTT10=
EXTT11=
EXTT12=
EXTT13=
EXTT14=
EXTT15=
PLAYORDER=
